<svg width="84" height="18" fill="none" xmlns="http://www.w3.org/2000/svg"><path d="M7.855 3.247l1.908 4.736 4.884.44c.34.03.477.474.22.707l-3.705 3.366 1.11 5.008c.077.348-.283.621-.574.436L7.5 15.287 3.303 17.94c-.292.184-.651-.09-.574-.437l1.11-5.008L.133 9.129c-.257-.233-.12-.677.22-.707l4.885-.44 1.908-4.735a.378.378 0 01.709 0zm17 0l1.908 4.736 4.884.44c.34.03.477.474.22.707l-3.705 3.366 1.11 5.008c.077.348-.283.621-.574.436L24.5 15.287l-4.197 2.655c-.292.184-.651-.09-.574-.437l1.11-5.008-3.706-3.367c-.257-.233-.12-.677.22-.707l4.884-.44 1.909-4.735a.378.378 0 01.709 0zm17 0l1.908 4.736 4.884.44c.34.03.477.474.22.707l-3.705 3.366 1.11 5.008c.077.348-.283.621-.574.436l-4.197-2.654-4.198 2.655c-.292.184-.651-.09-.574-.437l1.11-5.008-3.706-3.367c-.257-.233-.12-.677.22-.707l4.884-.44 1.908-4.735a.378.378 0 01.71 0zm17 0l1.908 4.736 4.884.44c.34.03.477.474.22.707l-3.705 3.366 1.11 5.008c.077.348-.283.621-.574.436l-4.197-2.654-4.198 2.655c-.292.184-.651-.09-.574-.437l1.11-5.008-3.706-3.367c-.257-.233-.12-.677.22-.707l4.884-.44 1.908-4.735a.378.378 0 01.71 0z" fill="#FFC31A"/><path d="M76.855 3.247l1.908 4.736 4.884.44c.34.03.477.474.22.707l-3.705 3.366 1.11 5.008c.077.348-.283.621-.574.436l-4.197-2.654-4.198 2.655c-.292.184-.651-.09-.574-.437l1.11-5.008-3.706-3.367c-.257-.233-.12-.677.22-.707l4.885-.44 1.907-4.735a.378.378 0 01.71 0z" fill="#FFC31A" fill-opacity=".36"/><mask id="a" maskUnits="userSpaceOnUse" x="69" y="0" width="7" height="18"><path fill="#fff" d="M69 0h7v18h-7z"/></mask><g mask="url(#a)"><path d="M76.156 3.37l1.928 4.59 4.934.426c.342.03.481.46.222.686l-3.743 3.263 1.122 4.853a.39.39 0 01-.58.424l-4.24-2.573-4.24 2.573a.39.39 0 01-.58-.424l1.121-4.853-3.743-3.264a.392.392 0 01.222-.685l4.934-.427 1.927-4.59a.388.388 0 01.716 0z" fill="#FFC31A"/></g></svg>