<svg width="84" height="18" viewBox="0 0 84 18" fill="none" xmlns="http://www.w3.org/2000/svg">
<path d="M7.85467 3.24707L9.76265 7.98258L14.6473 8.42262C14.9861 8.4533 15.1239 8.89657 14.8668 9.12992L11.1617 12.496L12.272 17.5036C12.349 17.8516 11.9894 18.1254 11.6983 17.9405L7.50048 15.2857L3.30261 17.9405C3.01079 18.1246 2.65199 17.8508 2.72899 17.5036L3.83928 12.496L0.133421 9.12911C-0.123748 8.89576 0.0133063 8.45249 0.352862 8.42181L5.23754 7.98177L7.14552 3.24707C7.27796 2.91764 7.72223 2.91764 7.85467 3.24707Z" fill="#FFC31A"/>
<path d="M24.8547 3.24707L26.7626 7.98258L31.6473 8.42262C31.9861 8.4533 32.1239 8.89657 31.8668 9.12992L28.1617 12.496L29.272 17.5036C29.349 17.8516 28.9894 18.1254 28.6983 17.9405L24.5005 15.2857L20.3026 17.9405C20.0108 18.1246 19.652 17.8508 19.729 17.5036L20.8393 12.496L17.1334 9.12911C16.8763 8.89576 17.0133 8.45249 17.3529 8.42181L22.2375 7.98177L24.1455 3.24707C24.278 2.91764 24.7222 2.91764 24.8547 3.24707Z" fill="#FFC31A"/>
<path d="M41.8547 3.24707L43.7626 7.98258L48.6473 8.42262C48.9861 8.4533 49.1239 8.89657 48.8668 9.12992L45.1617 12.496L46.272 17.5036C46.349 17.8516 45.9894 18.1254 45.6983 17.9405L41.5005 15.2857L37.3026 17.9405C37.0108 18.1246 36.652 17.8508 36.729 17.5036L37.8393 12.496L34.1334 9.12911C33.8763 8.89576 34.0133 8.45249 34.3529 8.42181L39.2375 7.98177L41.1455 3.24707C41.278 2.91764 41.7222 2.91764 41.8547 3.24707Z" fill="#FFC31A"/>
<path d="M58.8547 3.24707L60.7626 7.98258L65.6473 8.42262C65.9861 8.4533 66.1239 8.89657 65.8668 9.12992L62.1617 12.496L63.272 17.5036C63.349 17.8516 62.9894 18.1254 62.6983 17.9405L58.5005 15.2857L54.3026 17.9405C54.0108 18.1246 53.652 17.8508 53.729 17.5036L54.8393 12.496L51.1334 9.12911C50.8763 8.89576 51.0133 8.45249 51.3529 8.42181L56.2375 7.98177L58.1455 3.24707C58.278 2.91764 58.7222 2.91764 58.8547 3.24707Z" fill="#FFC31A"/>
<path d="M76.8547 3.24707L78.7626 7.98258L83.6473 8.42262C83.9861 8.4533 84.1239 8.89657 83.8668 9.12992L80.1617 12.496L81.272 17.5036C81.349 17.8516 80.9894 18.1254 80.6983 17.9405L76.5005 15.2857L72.3026 17.9405C72.0108 18.1246 71.652 17.8508 71.729 17.5036L72.8393 12.496L69.1334 9.12911C68.8763 8.89576 69.0133 8.45249 69.3529 8.42181L74.2375 7.98177L76.1455 3.24707C76.278 2.91764 76.7222 2.91764 76.8547 3.24707Z" fill="#FFC31A" fill-opacity="0.36"/>
<mask id="mask0" mask-type="alpha" maskUnits="userSpaceOnUse" x="69" y="0" width="7" height="18">
<rect x="69" width="7" height="18" fill="white"/>
</mask>
<g mask="url(#mask0)">
<path d="M76.1565 3.36985L78.0838 7.95985L83.0181 8.38637C83.3603 8.41611 83.4995 8.84576 83.2397 9.07194L79.4971 12.3346L80.6186 17.1884C80.6964 17.5257 80.3332 17.791 80.0392 17.6118L75.7987 15.0385L71.5583 17.6118C71.2635 17.7902 70.9011 17.5249 70.9788 17.1884L72.1004 12.3346L68.3569 9.07115C68.0972 8.84498 68.2356 8.41533 68.5786 8.38559L73.5128 7.95907L75.4402 3.36985C75.5739 3.05055 76.0227 3.05055 76.1565 3.36985Z" fill="#FFC31A"/>
</g>
</svg>
